<?xml version="1.0" encoding="utf-8"?>
<!-- Generator: Adobe Illustrator 24.3.0, SVG Export Plug-In . SVG Version: 6.00 Build 0)  -->
<svg version="1.1" id="Capa_1" xmlns="http://www.w3.org/2000/svg" xmlns:xlink="http://www.w3.org/1999/xlink" x="0px" y="0px"
	 viewBox="0 0 841.9 595.3" style="enable-background:new 0 0 841.9 595.3;" xml:space="preserve">
<style type="text/css">
	.st0{fill:#FFFFFF;}
</style>
<path class="st0" d="M151.7,469c0-114.3,0-226.9,0-340.8c30.5,0,60.6-0.2,90.8,0c28.9,0.2,58-0.4,86.8,1.4
	c35.5,2.3,66,14.7,82.1,49.8c13,28.5,9.8,73.5-14.9,93c-5.7,4.5-11.7,8.5-17.1,12.3c8.9,6.5,19.4,12.2,27.5,20.3
	c25.5,25.7,30.9,69.8,14.4,105.4c-16.5,35.7-45.5,54-83.6,56.1c-39.9,2.2-79.9,1.9-119.8,2.4C196.1,469.2,174.3,469,151.7,469z
	 M230,409.7c29,0,57.5,0.5,86-0.2c22.8-0.5,37.4-12.4,40.8-34.7c4.3-27.7-1.2-48.1-30.7-52.1c-31.5-4.2-63.7-2.7-96.1-3.7
	C230,350.8,230,380.5,230,409.7z M229.9,262.9c25.9,0,50.6,0.3,75.4-0.2c8-0.2,16.4-1.6,24-4.2c15.4-5.1,24-20.7,22.2-37.8
	c-1.9-17.9-10.7-27.8-28.5-30.1c-10.9-1.4-22-1.8-33.1-2c-19.9-0.3-39.8-0.1-60-0.1C229.9,213.7,229.9,237.7,229.9,262.9z"/>
<path class="st0" d="M521.1,354.6c-1,27.2,12.6,49.3,34.4,56.8c25.3,8.7,58.2,4.6,71.1-19.2c0.9-1.7,3.8-3.4,5.8-3.4
	c20-0.3,40-0.2,60.8-0.2c-1.2,15.1-8.5,26.7-17.3,37.3c-23.6,28.6-54.8,40.1-91.2,41.1c-37.5,1.1-70.4-9.2-97.7-35.6
	c-18.7-18.1-26.9-41.3-29.7-66.2c-3.6-31.4-2.4-62.7,10.9-92.2c16.5-36.8,45.7-56.9,84.7-63.6c32.3-5.5,63.5-1.4,91.4,15.7
	c28.3,17.4,45.1,44.1,50.6,76.8c2.8,16.8,2.5,34.1,3.6,52.6C638.7,354.6,579.9,354.6,521.1,354.6z M522.9,311.5
	c35.9,0,71.8,0,107.7,0c-0.6-28.4-20.8-48.7-47-50.7C541.9,257.6,524.4,284.1,522.9,311.5z"/>
<path class="st0" d="M509.1,142.9c45.5,0,90.3,0,135.8,0c0,11.1,0,22,0,33.6c-45,0-90.2,0-135.8,0
	C509.1,165.2,509.1,154.1,509.1,142.9z"/>
</svg>
