<?xml version="1.0" encoding="utf-8"?>
<!-- Generator: Adobe Illustrator 24.3.0, SVG Export Plug-In . SVG Version: 6.00 Build 0)  -->
<svg version="1.1" id="Capa_1" xmlns="http://www.w3.org/2000/svg" xmlns:xlink="http://www.w3.org/1999/xlink" x="0px" y="0px"
	 viewBox="0 0 841.9 595.3" style="enable-background:new 0 0 841.9 595.3;" xml:space="preserve">
<style type="text/css">
	.st0{fill:#FFFFFF;}
</style>
<path class="st0" d="M640.4,292.2c0,30.5,0.3,61-0.1,91.5c-0.3,32.2-11.7,60.4-33.3,84.3c-16.2,17.9-36,30.1-59.2,36.8
	c-11,3.2-22.2,4.8-33.6,4.8c-62.5,0-125,0.1-187.5,0c-17.9,0-35.1-4.2-51.3-11.8c-16.6-7.7-30.8-18.5-42.8-32.2
	c-14.4-16.6-23.9-35.7-28.4-57.2c-1.8-8.6-2.7-17.3-2.7-26.1c0-61.9-0.2-123.8,0.1-185.7c0.1-28.5,9.3-54,26.8-76.5
	c14.6-18.9,33.2-32.6,55.5-41.1c14.7-5.6,29.9-8.2,45.7-8.2c61.9,0,123.9-0.1,185.8,0.1c18.3,0,35.9,4.3,52.4,12.4
	c28.6,13.9,49.3,35.5,62.2,64.5c5.4,12.1,8.7,24.8,9.8,38c0.4,5.1,0.6,10.3,0.6,15.5C640.4,231.5,640.4,261.9,640.4,292.2
	C640.4,292.2,640.4,292.2,640.4,292.2z M235.2,290.1C235.3,290.1,235.3,290.1,235.2,290.1c0,31.2-0.1,62.3,0,93.5
	c0.1,16.5,4.2,32,12.8,46c18.5,30.2,45.7,45.9,81.1,46.1c60.9,0.4,121.8,0.1,182.6,0.1c2.5,0,5.1-0.1,7.6-0.2
	c23.3-1.7,43.4-10.6,59.9-27.1c18.1-18.2,27.3-40.3,27.3-66c0.1-61.9,0.1-123.8,0-185.7c0-5.8-0.7-11.7-1.8-17.4
	c-3.9-19.5-13.1-36.1-27.6-49.7c-17.6-16.4-38.6-25.1-62.6-25.2c-61.6-0.2-123.2-0.1-184.8-0.1c-7.1,0-14.2,0.6-21.1,2.2
	c-17.5,3.9-32.8,12.1-45.5,24.8c-18.4,18.4-27.6,40.8-27.7,66.8C235.2,228.9,235.2,259.5,235.2,290.1z"/>
<path class="st0" d="M420.9,408.3c-65.1,0-118.2-53.1-118.2-118.3c0-65.2,53.7-118.8,119.7-118c64.1,0.8,116.6,53.3,116.6,118.1
	C539.1,355.2,486,408.3,420.9,408.3z M505.3,290.3c0.1-46.3-37.4-84.2-83.4-84.5c-47.3-0.4-85.3,37.3-85.4,84.2
	c-0.1,46.7,37.4,84.6,84,84.7C467.5,374.7,505.2,337.2,505.3,290.3z"/>
<path class="st0" d="M556,138.3c9.3,0,16.8,7.6,16.8,16.9c0,9.3-7.7,16.9-17,16.9c-9.2-0.1-16.8-7.7-16.8-17
	C539.1,145.8,546.7,138.3,556,138.3z"/>
</svg>
