<?xml version="1.0" encoding="utf-8"?>
<!-- Generator: Adobe Illustrator 24.3.0, SVG Export Plug-In . SVG Version: 6.00 Build 0)  -->
<svg version="1.1" id="Capa_1" xmlns="http://www.w3.org/2000/svg" xmlns:xlink="http://www.w3.org/1999/xlink" x="0px" y="0px"
	 viewBox="0 0 841.89 595.28" style="enable-background:new 0 0 841.89 595.28;" xml:space="preserve">
<style type="text/css">
	.st0{fill:#FFFFFF;}
	.st1{fill:#37A298;}
</style>
<path class="st0" d="M231.47,83.24c-12.84,0-23.26,10.41-23.26,23.26c0,12.84,10.41,23.26,23.26,23.26c4.5,0,8.69-1.28,12.25-3.49
	c6.61-4.1,11-11.42,11-19.77C254.72,93.65,244.31,83.24,231.47,83.24z M231.47,122.56c-8.87,0-16.06-7.19-16.06-16.06
	c0-8.87,7.19-16.06,16.06-16.06c8.87,0,16.06,7.19,16.06,16.06C247.53,115.37,240.34,122.56,231.47,122.56z"/>
<path class="st0" d="M238.08,143.2c0,0-1.24-10.15,3.73-16.68c4.97-6.53-19.07,0-19.07,0s5.28,10.88,4.14,16.68H238.08z"/>
<path class="st0" d="M278.19,276.51c-2.86-5.28-7.12-9.67-9.87-15.02c-1.46-2.84-3.62-4.67-5.63-7.09c-2.08-2.49-3.97-5.16-5.71-7.9
	c-1.52-2.38-2.7-5.26-4.63-7.32c-1.94-2.07-3.89-3.74-4.72-6.54c-0.54-0.41-1-0.92-1.31-1.45c-0.48-0.82-0.76-2.03-0.64-3.07
	c-0.15-0.15-0.3-0.31-0.44-0.46c-0.58-0.61-1.1-1.28-1.6-1.96c-0.61-0.81-1.08-1.71-1.65-2.54c-1.51-1.78-3.21-3.34-4.51-5.31
	c-0.34-0.52-0.53-1.08-0.62-1.64c-0.7-0.43-1.3-1.02-1.76-1.73c-0.88-1.32-1.66-2.7-2.4-4.1c-0.38-0.72-0.75-1.44-1.12-2.16
	c-0.24-0.46-0.46-0.94-0.73-1.39c-0.88-0.95-1.93-1.76-2.88-2.63c-1.83-1.66-3.36-3.52-3.5-6.1c0-0.05,0.01-0.09,0.01-0.14
	c-0.19-0.14-0.39-0.29-0.54-0.46c-1.54-1.77-3.18-3.44-4.68-5.25c-0.99-1.2-1.96-2.43-2.81-3.74c-0.85-1.31-1.47-2.69-2.06-4.13
	c-0.01-0.03-0.01-0.06-0.02-0.1c-1.52-1.02-2.73-2.33-3.65-3.92c-0.49-0.85-0.96-1.69-1.5-2.5c-0.7-0.77-1.48-1.45-2.13-2.27
	c-0.58-0.73-1.11-1.4-1.51-2.23c-0.13-0.28-0.27-0.56-0.42-0.83c-0.06-0.06-0.11-0.12-0.18-0.18c-0.87-0.7-1.26-1.89-1.39-3
	c-0.22-0.16-0.43-0.32-0.58-0.51c-1.41-1.74-3.06-3.27-4.5-4.98c-0.81-0.96-1.64-1.94-2.22-3.06c-0.43-0.81-0.78-1.67-1.13-2.52
	c-0.27-0.63-0.58-1.24-0.94-1.82c-0.14-0.15-0.27-0.31-0.43-0.44c-0.8-0.71-1.32-1.6-1.56-2.56c-1.15-0.8-1.8-2.11-1.96-3.49
	c-1.91-0.56-2.98-2.17-3.22-3.94c-0.73-0.5-1.25-1.2-1.59-2H63.18v71.19h116.58v246.51h105.9V286.34
	C282.2,284.01,280.25,280.32,278.19,276.51z"/>
<path class="st0" d="M196.34,144.08c0.05,0.2,0.06,0.41,0.08,0.62c1.76,0.5,2.81,1.92,3.16,3.52c1.38,0.93,2.48,2.1,3.31,3.55
	c0.52,0.91,0.92,1.89,1.32,2.87c0.35,0.8,0.74,1.55,1.23,2.26c1.45,1.73,3.1,3.28,4.52,5.03c0.61,0.61,1.03,1.34,1.26,2.17
	c0.04,0.31,0.08,0.61,0.12,0.92c0.19,0.14,0.39,0.27,0.58,0.43c0.78,0.62,1.41,1.52,1.86,2.41c0.2,0.41,0.4,0.81,0.63,1.2
	c0.37,0.42,0.74,0.83,1.15,1.23c0.8,0.77,1.47,1.64,2.11,2.55c0.66,0.94,1.15,1.98,1.76,2.95c0.13,0.14,0.26,0.28,0.4,0.41
	c1.04,0.71,1.72,1.72,2.02,2.84c0.45,0.29,0.84,0.64,1.14,1.09c0.3,0.33,0.5,0.7,0.67,1.11c0.59,1.28,1.34,2.47,2.17,3.6
	c1.6,1.99,3.38,3.83,5.06,5.75c0.89,1.02,1.38,2.12,1.44,3.47c0,0.05-0.01,0.11-0.01,0.16c0.19,0.14,0.38,0.28,0.54,0.44
	c0.48,0.48,0.82,1.03,1.05,1.62c1.32,1.4,2.94,2.5,4.2,3.95c1.24,1.43,1.97,3.1,2.84,4.76c0.82,1.56,1.67,3.09,2.64,4.56
	c0.34,0.52,0.53,1.08,0.62,1.64c0.7,0.43,1.3,1.02,1.76,1.73c0.04,0.07,0.09,0.13,0.14,0.2c0.91,1.08,1.94,2.06,2.86,3.13
	c0.75,0.87,1.49,1.8,2.08,2.8c0.26,0.45,0.53,0.89,0.81,1.32c0.86,0.98,1.81,1.86,2.55,2.95c0.78,1.14,1.18,2.6,1.23,4.04
	c0.6,0.56,1.08,1.31,1.34,2.33c0.2,0.82,0.88,1.22,1.56,1.86c1.01,0.95,1.88,1.91,2.68,3.05c1.65,2.33,2.92,4.93,4.46,7.33
	c1.45,2.25,2.96,4.53,4.76,6.51c1.95,2.14,4.02,4.05,5.51,6.57c1.6,2.72,3.07,5.37,4.89,7.96c1.58,2.25,3.31,4.44,4.77,6.76
	c0.01,0.02,0.02,0.04,0.03,0.05v-54.49h116.58v-71.19H196.34z"/>
<g>
	<path class="st0" d="M195.28,141.92c0.67,0.77,1.06,1.76,1.17,2.79c1.74,0.51,2.78,1.92,3.13,3.51c1.38,0.93,2.48,2.1,3.32,3.55
		c0.52,0.91,0.92,1.89,1.32,2.87c0.35,0.8,0.74,1.55,1.23,2.26c1.45,1.73,3.1,3.28,4.52,5.03c0.61,0.61,1.03,1.34,1.26,2.17
		c0.04,0.31,0.08,0.61,0.12,0.92c0.19,0.14,0.39,0.27,0.58,0.43c0.78,0.62,1.41,1.52,1.86,2.41c0.2,0.41,0.4,0.81,0.63,1.2
		c0.37,0.42,0.74,0.83,1.15,1.23c0.8,0.77,1.47,1.64,2.11,2.55c0.66,0.94,1.15,1.98,1.76,2.95c0.13,0.14,0.26,0.28,0.4,0.41
		c1.04,0.71,1.72,1.72,2.02,2.84c0.45,0.29,0.84,0.64,1.14,1.09c0.3,0.33,0.5,0.7,0.67,1.11c0.59,1.28,1.34,2.47,2.17,3.6
		c1.6,1.99,3.38,3.83,5.06,5.75c0.89,1.02,1.38,2.12,1.44,3.47c0,0.05-0.01,0.11-0.01,0.16c0.19,0.14,0.38,0.28,0.54,0.44
		c0.48,0.48,0.82,1.03,1.05,1.62c1.32,1.4,2.94,2.5,4.2,3.95c1.24,1.43,1.97,3.1,2.84,4.76c0.82,1.56,1.67,3.09,2.64,4.56
		c0.34,0.52,0.53,1.08,0.62,1.64c0.7,0.43,1.3,1.02,1.76,1.73c0.04,0.07,0.09,0.13,0.14,0.2c0.91,1.08,1.94,2.06,2.86,3.13
		c0.75,0.87,1.49,1.8,2.08,2.8c0.26,0.45,0.53,0.89,0.81,1.32c0.86,0.98,1.81,1.86,2.55,2.95c0.78,1.14,1.18,2.6,1.23,4.04
		c0.6,0.56,1.08,1.31,1.34,2.33c0.2,0.82,0.88,1.22,1.56,1.86c1.01,0.95,1.88,1.91,2.68,3.05c1.65,2.33,2.92,4.93,4.46,7.33
		c1.45,2.25,2.96,4.53,4.76,6.51c1.95,2.14,4.02,4.05,5.51,6.57c1.6,2.72,3.07,5.37,4.89,7.96c1.58,2.25,3.31,4.44,4.77,6.76
		c0.22,0.35,0.41,0.73,0.61,1.09v-55.62h117.78v-73.27H195.28z"/>
	<path class="st0" d="M278.19,276.51c-2.86-5.28-7.12-9.67-9.87-15.02c-1.46-2.84-3.62-4.67-5.63-7.09
		c-2.08-2.49-3.97-5.16-5.71-7.9c-1.52-2.38-2.7-5.26-4.63-7.32c-1.94-2.07-3.89-3.74-4.72-6.54c-0.54-0.41-1-0.92-1.31-1.45
		c-0.48-0.82-0.76-2.03-0.64-3.07c-0.15-0.15-0.3-0.31-0.44-0.46c-0.58-0.61-1.1-1.28-1.6-1.96c-0.61-0.81-1.08-1.71-1.65-2.54
		c-1.51-1.78-3.21-3.34-4.51-5.31c-0.34-0.52-0.53-1.08-0.62-1.64c-0.7-0.43-1.3-1.02-1.76-1.73c-0.88-1.32-1.66-2.7-2.4-4.1
		c-0.38-0.72-0.75-1.44-1.12-2.16c-0.24-0.46-0.46-0.94-0.73-1.39c-0.88-0.95-1.93-1.76-2.88-2.63c-1.83-1.66-3.36-3.52-3.5-6.1
		c0-0.05,0.01-0.09,0.01-0.14c-0.19-0.14-0.39-0.29-0.54-0.46c-1.54-1.77-3.18-3.44-4.68-5.25c-0.99-1.2-1.96-2.43-2.81-3.74
		c-0.85-1.31-1.47-2.69-2.06-4.13c-0.01-0.03-0.01-0.06-0.02-0.1c-1.52-1.02-2.73-2.33-3.65-3.92c-0.49-0.85-0.96-1.69-1.5-2.5
		c-0.7-0.77-1.48-1.45-2.13-2.27c-0.58-0.73-1.11-1.4-1.51-2.23c-0.13-0.28-0.27-0.56-0.42-0.83c-0.06-0.06-0.11-0.12-0.18-0.18
		c-0.87-0.7-1.26-1.89-1.39-3c-0.22-0.16-0.43-0.32-0.58-0.51c-1.41-1.74-3.06-3.27-4.5-4.98c-0.81-0.96-1.64-1.94-2.22-3.06
		c-0.43-0.81-0.78-1.67-1.13-2.52c-0.27-0.63-0.58-1.24-0.94-1.82c-0.14-0.15-0.27-0.31-0.43-0.44c-0.8-0.71-1.32-1.6-1.56-2.56
		c-1.15-0.8-1.8-2.11-1.96-3.49c-1.91-0.56-2.99-2.18-3.22-3.95c-1.35-0.93-2.03-2.53-2.02-4.15H61.46v73.27h117.78v253.69h106.99
		V286.72C282.4,284.43,280.36,280.53,278.19,276.51z"/>
	<path class="st0" d="M278.7,276.26c-1.24-1.6-2.48-3.18-3.6-4.75c-3.36-4.72-6.72-9.44-10.07-14.17
		c-10.18-14.37-20.32-28.78-30.46-43.19c-4.86-6.91-9.72-13.81-14.58-20.72c-6.71-9.54-13.42-19.08-20.13-28.62
		c-3.36-4.77-6.71-9.54-10.07-14.31c-2.09-2.98-4.06-7.78-7.61-8.58c-2.68-0.6-6.22,0-8.95,0c-4.6,0-9.2,0-13.8,0
		c-23.89,0-47.79,0-71.68,0c-8.76,0-17.52,0-26.28,0v73.27h117.78v143.28c5.93-9.41,16.65-15.85,27.69-15.85
		c0.86,0,1.7,0.04,2.53,0.11c-1.78-4.05-2.86-8.5-3.07-13.15c-0.78-17.82,15.45-32.99,32.39-32.99c16,0,28.34,11.75,31.58,26.77
		c3.2,5.27,5.16,11.4,5.54,17.62c0.04,0.55,0.08,0.99,0.1,1.37c0.09,0.46,0.16,0.92,0.25,1.37c0.52,2.58,1.14,5.14,1.76,7.69
		c1.33,5.42,2.69,10.8,3.61,16.31c0.25,1.5,0.4,2.98,0.51,4.44c1.4,2.69,2.46,5.58,3.16,8.61c0.31,0.14,0.62,0.29,0.93,0.44
		c0-17.45,0-34.91,0-52.36c0-10.89,0-21.78,0-32.67c0-3.53,0.58-7.48-1.03-10.53C283.48,282.4,281.07,279.3,278.7,276.26z"/>
	<path class="st0" d="M283.41,394.82c-2.04,0.6-4.13,1.02-6.24,1.18c-3.58,1.51-7.39,2.39-11.26,2.49c-2.3,0.7-4.68,1.15-7.08,1.29
		c-4,0.76-9.57,2-12.22,2.88c-3.21,1.27-6.54,1.13-10.05,2.18c-3.17,1.19-6.38,1.01-9.89,1.98c-1.6,0.34-3.22,0.56-4.86,0.64
		c-2.08,0.46-4.54-0.1-6.68-0.1c-4.19,0-7.79-0.01-11.39-1.46c-6.48-1.12-12.18-4.19-16.65-8.59c-3.09-2.37-5.74-5.29-7.86-8.62
		v80.17h107.44v-74.79C285.61,394.38,284.52,394.63,283.41,394.82z"/>
	<path class="st0" d="M195.28,141.92c0.67,0.77,1.03,1.76,1.13,2.78c1.76,0.5,2.8,1.92,3.15,3.51c1.38,0.94,2.49,2.1,3.33,3.56
		c0.52,0.91,0.92,1.89,1.32,2.87c0.35,0.8,0.74,1.55,1.23,2.26c1.45,1.73,3.1,3.28,4.52,5.03c0.61,0.61,1.03,1.34,1.26,2.17
		c0.04,0.31,0.08,0.61,0.12,0.92c0.19,0.14,0.39,0.27,0.58,0.43c0.78,0.62,1.41,1.52,1.86,2.41c0.2,0.41,0.4,0.81,0.63,1.2
		c0.37,0.42,0.74,0.83,1.15,1.23c0.8,0.77,1.47,1.64,2.11,2.55c0.66,0.94,1.15,1.98,1.76,2.95c0.13,0.14,0.26,0.28,0.4,0.41
		c1.04,0.71,1.72,1.72,2.02,2.84c0.45,0.29,0.84,0.64,1.14,1.09c0.3,0.33,0.5,0.7,0.67,1.11c0.59,1.28,1.34,2.47,2.17,3.6
		c1.6,1.99,3.38,3.83,5.06,5.75c0.89,1.02,1.38,2.12,1.44,3.47c0,0.05-0.01,0.11-0.01,0.16c0.19,0.14,0.38,0.28,0.54,0.44
		c0.48,0.48,0.82,1.03,1.05,1.62c1.32,1.4,2.94,2.5,4.2,3.95c1.24,1.43,1.97,3.1,2.84,4.76c0.82,1.56,1.67,3.09,2.64,4.56
		c0.34,0.52,0.52,1.07,0.61,1.63c0.71,0.43,1.31,1.03,1.78,1.74c0.04,0.07,0.09,0.13,0.14,0.2c0.91,1.08,1.94,2.06,2.86,3.13
		c0.75,0.87,1.49,1.8,2.08,2.8c0.26,0.45,0.53,0.89,0.81,1.32c0.86,0.98,1.81,1.86,2.55,2.95c0.79,1.15,1.21,2.6,1.25,4.05
		c0.59,0.56,1.07,1.31,1.32,2.31c0.2,0.82,0.88,1.22,1.56,1.86c1.01,0.95,1.88,1.91,2.68,3.05c1.65,2.33,2.92,4.93,4.46,7.33
		c1.45,2.25,2.96,4.53,4.76,6.51c1.95,2.14,4.02,4.05,5.51,6.57c1.6,2.72,3.07,5.37,4.89,7.96c1.58,2.25,3.31,4.44,4.77,6.76
		c0.05,0.07,0.08,0.15,0.13,0.23c0.31,0.29,0.62,0.58,0.93,0.88v-55.63h117.78v-73.27H195.28z"/>
	<path class="st1" d="M215.56,170.28c0.8,0.77,1.47,1.64,2.11,2.55c0.66,0.94,1.15,1.98,1.76,2.95c0.13,0.14,0.26,0.28,0.4,0.41
		c1.04,0.71,1.72,1.72,2.02,2.84c0.45,0.29,0.84,0.64,1.14,1.09c0.3,0.33,0.5,0.7,0.67,1.11c0.59,1.28,1.34,2.47,2.17,3.6
		c1.52,1.89,3.19,3.64,4.79,5.46L197,141.6h-2.05c0.87,0.8,1.35,1.93,1.48,3.1c1.76,0.51,2.8,1.92,3.14,3.51
		c1.38,0.93,2.48,2.1,3.32,3.56c0.52,0.91,0.92,1.89,1.32,2.87c0.35,0.8,0.74,1.55,1.23,2.26c1.45,1.73,3.1,3.28,4.52,5.03
		c0.61,0.61,1.03,1.34,1.26,2.17c0.04,0.31,0.08,0.61,0.12,0.92c0.19,0.14,0.39,0.27,0.58,0.43c0.78,0.62,1.41,1.52,1.86,2.41
		c0.2,0.41,0.4,0.81,0.63,1.2C214.78,169.47,215.15,169.88,215.56,170.28z"/>
	<path class="st1" d="M232.31,194.2c0.19,0.14,0.38,0.28,0.54,0.44c0.48,0.48,0.82,1.03,1.05,1.62c0.73,0.77,1.54,1.45,2.34,2.15
		l-4.4-6.37c0.28,0.61,0.45,1.27,0.48,2C232.32,194.1,232.31,194.15,232.31,194.2z"/>
	<path class="st1" d="M244.21,211.18c0.7,0.43,1.3,1.02,1.76,1.73c0.04,0.07,0.09,0.13,0.14,0.2c0.37,0.44,0.76,0.85,1.15,1.26
		l-5.68-8.22c0.63,1.15,1.28,2.29,2,3.39C243.93,210.05,244.12,210.61,244.21,211.18z"/>
	<path class="st1" d="M255.7,227.38c0.58,0.56,1.05,1.3,1.3,2.29c0.2,0.82,0.88,1.22,1.56,1.86c0.98,0.92,1.82,1.86,2.6,2.95
		l-5.54-8.02C255.66,226.76,255.69,227.07,255.7,227.38z"/>
	<path class="st1" d="M261.43,234.87c1.55,2.25,2.79,4.73,4.27,7.04c1.45,2.25,2.96,4.53,4.76,6.51c0.41,0.45,0.83,0.89,1.24,1.32
		L261.43,234.87z"/>
	<g>
		<g>
			<path class="st1" d="M286.88,378.99c-0.54-2.23-1.08-4.45-1.61-6.68c-1.47-6.1-2.92-12.19-4.39-18.29
				c-1.72-7.16-3.45-14.31-5.18-21.47c-0.54-2.25-0.96-4.54-1.71-6.72c-1.39-4.07-3.29-7.91-5.57-11.54
				c-4.9-7.83-11.22-14.06-19.74-17.68c-9.44-4-18.91-4.1-28.21,0.45c-6.93,3.38-11.78,8.81-14.41,16.19
				c-2.47,6.94-2.16,13.95-0.24,20.96c0.62,2.28,1.44,4.5,2.42,6.75c-0.36,0.02-0.63,0.03-0.91,0.05
				c-5.27,0.23-10.38,1.2-15.23,3.37c-5.35,2.39-9.7,5.92-12.85,10.75v33.65c3.61,6.18,9.04,10.94,15.97,14.47
				c5.92,3.01,12.29,4.37,18.88,4.74c3.23,0.18,6.49,0.33,9.66-0.28c8.1-1.57,16.17-3.35,24.24-5.05c6.1-1.28,12.19-2.56,18.29-3.85
				c6.86-1.44,13.73-2.88,20.59-4.34V378.99z M283.68,390.01c-9.96,2.07-19.92,4.16-29.88,6.25c-10.11,2.12-20.21,4.3-30.33,6.37
				c-3.08,0.63-6.23,0.47-9.35,0.29c-5.39-0.31-10.62-1.38-15.54-3.66c-9.57-4.43-16.19-11.52-18.55-22.14
				c-1.61-7.23-0.39-14.05,3.97-20.11c3.27-4.55,7.77-7.4,12.99-9.13c4.81-1.59,9.77-2.07,14.8-1.85c1.09,0.05,1.98-0.23,2.57-1.2
				c0.58-0.94,0.43-1.85-0.06-2.81c-2.64-5.12-4.52-10.49-4.91-16.31c-0.41-6.16,0.9-11.86,4.54-16.87
				c2.59-3.57,5.97-6.22,10.01-7.9c7.99-3.32,15.9-2.87,23.71,0.68c1.41,0.64,2.77,1.36,4.05,2.24c6.5,4.25,11.14,10.15,14.76,17.01
				c2.23,4.23,3.49,8.75,4.57,13.38c1.77,7.63,3.65,15.23,5.48,22.84c1.72,7.16,3.44,14.32,5.17,21.47
				c0.85,3.54,1.69,7.08,2.57,10.62C284.38,389.77,284.21,389.9,283.68,390.01z"/>
		</g>
	</g>
</g>
<polygon class="st1" points="197.13,142.28 184.4,142.28 286.11,286.8 286.11,268.72 "/>
<g>
	<path class="st0" d="M377.61,467.41c-27.84,0-40.11-27.51-34.47-60.99c6.3-33.47,33.48-60.65,61.31-60.65
		c8.95,0,14.25,1.66,21.54,5.64h18.23l-15.58,89.16c-1.33,7.62-1,13.59,3.64,13.59c3.65,0,10.61-4.97,13.26-7.29v7.62
		c-6.63,6.63-15.91,11.6-21.88,11.6c-9.28,0-13.92-5.96-14.58-15.25C400.81,460.45,387.88,467.41,377.61,467.41z M423.34,364.67
		c-3.64-3.65-9.94-8.29-20.55-8.29c-19.56,0-33.48,23.53-38.11,50.05c-4.97,26.51,0,47.73,18.89,47.73
		c12.59,0,26.18-12.93,29.5-30.82L423.34,364.67z"/>
	<path class="st0" d="M535.38,394.49c6.63-36.12-11.93-36.46-10.28-44.74c0.33-3.98,4.64-6.3,8.29-6.3
		c8.62,0,20.22,12.59,13.92,45.73c-13.92,80.54-99.1,160.75-153.12,160.75c-19.56,0-26.51-9.28-25.19-17.57
		c0.66-4.3,5.96-10.93,10.27-10.93c6.63,0,4.64,14.25,23.86,14.25c24.19,0,56.34-21.54,82.53-51.04
		c13.26-89.16-0.33-126.27-14.91-126.27c-4.64,0-12.93,5.3-15.25,7.95v-7.95c6.3-6.63,15.25-11.27,24.19-11.27
		c25.19,0,35.79,44.41,26.85,111.7C520.79,437.58,532.06,415.04,535.38,394.49z"/>
	<path class="st0" d="M601.33,454.15c3.98,0,10.94-4.97,13.26-7.29v7.62c-6.63,6.63-15.58,11.6-21.54,11.6
		c-11.6,0-16.57-9.94-14.25-23.2l12.59-70.27c1.33-7.95,0.67-13.92-3.64-13.92c-3.98,0-10.94,4.97-13.26,7.62v-7.95
		c6.3-6.63,15.25-11.27,21.54-11.27c11.6,0,16.57,9.61,14.25,22.87l-12.27,70.59C596.36,448.19,597.03,454.15,601.33,454.15z
		 M611.28,309.98c-6.3,0-10.61-4.97-9.61-11.6c1.32-6.3,7.62-11.6,13.92-11.6s10.61,5.3,9.61,11.6
		C624.2,305.01,617.9,309.98,611.28,309.98z"/>
	<path class="st0" d="M704.41,258.61l-49.05,19.55l-0.99-2.32l35.8-28.84c6.3-4.97,10.61-7.95,15.91-7.95
		c6.63,0,8.61,5.64,7.95,9.61C713.03,253.63,707.39,257.28,704.41,258.61z"/>
	<path class="st0" d="M732.26,467.41c-20.55,0-30.16-13.59-28.5-22.54c0.99-4.97,4.64-7.62,9.28-7.62c12.26,0,0.66,19.56,23.2,19.56
		c9.61,0,16.9-8.62,17.9-15.91c1.66-8.95-4.97-18.89-9.61-23.2l-11.93-11.6c-7.62-7.29-12.93-19.55-10.94-30.16
		c2.32-14.91,14.25-30.16,36.13-30.16c17.9,0,23.53,11.93,22.54,19.56c-0.67,3.98-3.65,6.63-7.3,6.63
		c-11.6,0-1.66-17.24-18.89-17.24c-7.29,0-14.91,5.64-16.57,14.58c-1.66,8.62,1.99,13.92,9.94,21.88l11.93,11.27
		c8.62,8.29,12.93,20.55,10.94,30.82C766.4,455.81,748.17,467.41,732.26,467.41z"/>
</g>
</svg>
