<?xml version="1.0" encoding="utf-8"?>
<!-- Generator: Adobe Illustrator 24.3.0, SVG Export Plug-In . SVG Version: 6.00 Build 0)  -->
<svg version="1.1" id="Capa_1" xmlns="http://www.w3.org/2000/svg" xmlns:xlink="http://www.w3.org/1999/xlink" x="0px" y="0px"
	 viewBox="0 0 841.9 595.3" style="enable-background:new 0 0 841.9 595.3;" xml:space="preserve">
<style type="text/css">
	.st0{fill:#FFFFFF;}
</style>
<path d="M231.5,83.2c-12.8,0-23.3,10.4-23.3,23.3c0,12.8,10.4,23.3,23.3,23.3c4.5,0,8.7-1.3,12.2-3.5c6.6-4.1,11-11.4,11-19.8
	C254.7,93.7,244.3,83.2,231.5,83.2z M231.5,122.6c-8.9,0-16.1-7.2-16.1-16.1s7.2-16.1,16.1-16.1s16.1,7.2,16.1,16.1
	S240.3,122.6,231.5,122.6z"/>
<path d="M238.1,143.2c0,0-1.2-10.1,3.7-16.7c5-6.5-19.1,0-19.1,0s5.3,10.9,4.1,16.7H238.1z"/>
<path class="st0" d="M278.2,276.5c-2.9-5.3-7.1-9.7-9.9-15c-1.5-2.8-3.6-4.7-5.6-7.1c-2.1-2.5-4-5.2-5.7-7.9
	c-1.5-2.4-2.7-5.3-4.6-7.3c-1.9-2.1-3.9-3.7-4.7-6.5c-0.5-0.4-1-0.9-1.3-1.4c-0.5-0.8-0.8-2-0.6-3.1c-0.1-0.1-0.3-0.3-0.4-0.5
	c-0.6-0.6-1.1-1.3-1.6-2c-0.6-0.8-1.1-1.7-1.6-2.5c-1.5-1.8-3.2-3.3-4.5-5.3c-0.3-0.5-0.5-1.1-0.6-1.6c-0.7-0.4-1.3-1-1.8-1.7
	c-0.9-1.3-1.7-2.7-2.4-4.1c-0.4-0.7-0.8-1.4-1.1-2.2c-0.2-0.5-0.5-0.9-0.7-1.4c-0.9-0.9-1.9-1.8-2.9-2.6c-1.8-1.7-3.4-3.5-3.5-6.1
	c0-0.1,0-0.1,0-0.1c-0.2-0.1-0.4-0.3-0.5-0.5c-1.5-1.8-3.2-3.4-4.7-5.2c-1-1.2-2-2.4-2.8-3.7c-0.9-1.3-1.5-2.7-2.1-4.1
	c0,0,0-0.1,0-0.1c-1.5-1-2.7-2.3-3.6-3.9c-0.5-0.9-1-1.7-1.5-2.5c-0.7-0.8-1.5-1.4-2.1-2.3c-0.6-0.7-1.1-1.4-1.5-2.2
	c-0.1-0.3-0.3-0.6-0.4-0.8c-0.1-0.1-0.1-0.1-0.2-0.2c-0.9-0.7-1.3-1.9-1.4-3c-0.2-0.2-0.4-0.3-0.6-0.5c-1.4-1.7-3.1-3.3-4.5-5
	c-0.8-1-1.6-1.9-2.2-3.1c-0.4-0.8-0.8-1.7-1.1-2.5c-0.3-0.6-0.6-1.2-0.9-1.8c-0.1-0.1-0.3-0.3-0.4-0.4c-0.8-0.7-1.3-1.6-1.6-2.6
	c-1.1-0.8-1.8-2.1-2-3.5c-1.9-0.6-3-2.2-3.2-3.9c-0.7-0.5-1.2-1.2-1.6-2H63.2v71.2h116.6v246.5h105.9V286.3
	C282.2,284,280.2,280.3,278.2,276.5z"/>
<path class="st0" d="M196.3,144.1c0.1,0.2,0.1,0.4,0.1,0.6c1.8,0.5,2.8,1.9,3.2,3.5c1.4,0.9,2.5,2.1,3.3,3.6
	c0.5,0.9,0.9,1.9,1.3,2.9c0.4,0.8,0.7,1.6,1.2,2.3c1.4,1.7,3.1,3.3,4.5,5c0.6,0.6,1,1.3,1.3,2.2c0,0.3,0.1,0.6,0.1,0.9
	c0.2,0.1,0.4,0.3,0.6,0.4c0.8,0.6,1.4,1.5,1.9,2.4c0.2,0.4,0.4,0.8,0.6,1.2c0.4,0.4,0.7,0.8,1.1,1.2c0.8,0.8,1.5,1.6,2.1,2.6
	c0.7,0.9,1.1,2,1.8,2.9c0.1,0.1,0.3,0.3,0.4,0.4c1,0.7,1.7,1.7,2,2.8c0.4,0.3,0.8,0.6,1.1,1.1c0.3,0.3,0.5,0.7,0.7,1.1
	c0.6,1.3,1.3,2.5,2.2,3.6c1.6,2,3.4,3.8,5.1,5.8c0.9,1,1.4,2.1,1.4,3.5c0,0.1,0,0.1,0,0.2c0.2,0.1,0.4,0.3,0.5,0.4
	c0.5,0.5,0.8,1,1.1,1.6c1.3,1.4,2.9,2.5,4.2,3.9c1.2,1.4,2,3.1,2.8,4.8c0.8,1.6,1.7,3.1,2.6,4.6c0.3,0.5,0.5,1.1,0.6,1.6
	c0.7,0.4,1.3,1,1.8,1.7c0,0.1,0.1,0.1,0.1,0.2c0.9,1.1,1.9,2.1,2.9,3.1c0.8,0.9,1.5,1.8,2.1,2.8c0.3,0.4,0.5,0.9,0.8,1.3
	c0.9,1,1.8,1.9,2.6,2.9c0.8,1.1,1.2,2.6,1.2,4c0.6,0.6,1.1,1.3,1.3,2.3c0.2,0.8,0.9,1.2,1.6,1.9c1,0.9,1.9,1.9,2.7,3.1
	c1.6,2.3,2.9,4.9,4.5,7.3c1.5,2.2,3,4.5,4.8,6.5c2,2.1,4,4.1,5.5,6.6c1.6,2.7,3.1,5.4,4.9,8c1.6,2.2,3.3,4.4,4.8,6.8c0,0,0,0,0,0
	v-54.5h116.6v-71.2L196.3,144.1L196.3,144.1z"/>
<g>
	<path class="st0" d="M195.3,141.9c0.7,0.8,1.1,1.8,1.2,2.8c1.7,0.5,2.8,1.9,3.1,3.5c1.4,0.9,2.5,2.1,3.3,3.6
		c0.5,0.9,0.9,1.9,1.3,2.9c0.4,0.8,0.7,1.6,1.2,2.3c1.4,1.7,3.1,3.3,4.5,5c0.6,0.6,1,1.3,1.3,2.2c0,0.3,0.1,0.6,0.1,0.9
		c0.2,0.1,0.4,0.3,0.6,0.4c0.8,0.6,1.4,1.5,1.9,2.4c0.2,0.4,0.4,0.8,0.6,1.2c0.4,0.4,0.7,0.8,1.1,1.2c0.8,0.8,1.5,1.6,2.1,2.6
		c0.7,0.9,1.1,2,1.8,2.9c0.1,0.1,0.3,0.3,0.4,0.4c1,0.7,1.7,1.7,2,2.8c0.4,0.3,0.8,0.6,1.1,1.1c0.3,0.3,0.5,0.7,0.7,1.1
		c0.6,1.3,1.3,2.5,2.2,3.6c1.6,2,3.4,3.8,5.1,5.8c0.9,1,1.4,2.1,1.4,3.5c0,0.1,0,0.1,0,0.2c0.2,0.1,0.4,0.3,0.5,0.4
		c0.5,0.5,0.8,1,1.1,1.6c1.3,1.4,2.9,2.5,4.2,3.9c1.2,1.4,2,3.1,2.8,4.8c0.8,1.6,1.7,3.1,2.6,4.6c0.3,0.5,0.5,1.1,0.6,1.6
		c0.7,0.4,1.3,1,1.8,1.7c0,0.1,0.1,0.1,0.1,0.2c0.9,1.1,1.9,2.1,2.9,3.1c0.8,0.9,1.5,1.8,2.1,2.8c0.3,0.4,0.5,0.9,0.8,1.3
		c0.9,1,1.8,1.9,2.6,2.9c0.8,1.1,1.2,2.6,1.2,4c0.6,0.6,1.1,1.3,1.3,2.3c0.2,0.8,0.9,1.2,1.6,1.9c1,0.9,1.9,1.9,2.7,3.1
		c1.6,2.3,2.9,4.9,4.5,7.3c1.5,2.2,3,4.5,4.8,6.5c2,2.1,4,4.1,5.5,6.6c1.6,2.7,3.1,5.4,4.9,8c1.6,2.2,3.3,4.4,4.8,6.8
		c0.2,0.4,0.4,0.7,0.6,1.1v-55.6H404v-73.3L195.3,141.9L195.3,141.9z"/>
	<path d="M278.2,276.5c-2.9-5.3-7.1-9.7-9.9-15c-1.5-2.8-3.6-4.7-5.6-7.1c-2.1-2.5-4-5.2-5.7-7.9c-1.5-2.4-2.7-5.3-4.6-7.3
		c-1.9-2.1-3.9-3.7-4.7-6.5c-0.5-0.4-1-0.9-1.3-1.4c-0.5-0.8-0.8-2-0.6-3.1c-0.1-0.1-0.3-0.3-0.4-0.5c-0.6-0.6-1.1-1.3-1.6-2
		c-0.6-0.8-1.1-1.7-1.6-2.5c-1.5-1.8-3.2-3.3-4.5-5.3c-0.3-0.5-0.5-1.1-0.6-1.6c-0.7-0.4-1.3-1-1.8-1.7c-0.9-1.3-1.7-2.7-2.4-4.1
		c-0.4-0.7-0.8-1.4-1.1-2.2c-0.2-0.5-0.5-0.9-0.7-1.4c-0.9-0.9-1.9-1.8-2.9-2.6c-1.8-1.7-3.4-3.5-3.5-6.1c0-0.1,0-0.1,0-0.1
		c-0.2-0.1-0.4-0.3-0.5-0.5c-1.5-1.8-3.2-3.4-4.7-5.2c-1-1.2-2-2.4-2.8-3.7c-0.9-1.3-1.5-2.7-2.1-4.1c0,0,0-0.1,0-0.1
		c-1.5-1-2.7-2.3-3.6-3.9c-0.5-0.9-1-1.7-1.5-2.5c-0.7-0.8-1.5-1.4-2.1-2.3c-0.6-0.7-1.1-1.4-1.5-2.2c-0.1-0.3-0.3-0.6-0.4-0.8
		c-0.1-0.1-0.1-0.1-0.2-0.2c-0.9-0.7-1.3-1.9-1.4-3c-0.2-0.2-0.4-0.3-0.6-0.5c-1.4-1.7-3.1-3.3-4.5-5c-0.8-1-1.6-1.9-2.2-3.1
		c-0.4-0.8-0.8-1.7-1.1-2.5c-0.3-0.6-0.6-1.2-0.9-1.8c-0.1-0.1-0.3-0.3-0.4-0.4c-0.8-0.7-1.3-1.6-1.6-2.6c-1.1-0.8-1.8-2.1-2-3.5
		c-1.9-0.6-3-2.2-3.2-3.9c-1.4-0.9-2-2.5-2-4.1H61.5v73.3h117.8v253.7h107V286.7C282.4,284.4,280.4,280.5,278.2,276.5z"/>
	<path d="M278.7,276.3c-1.2-1.6-2.5-3.2-3.6-4.8c-3.4-4.7-6.7-9.4-10.1-14.2c-10.2-14.4-20.3-28.8-30.5-43.2
		c-4.9-6.9-9.7-13.8-14.6-20.7c-6.7-9.5-13.4-19.1-20.1-28.6c-3.4-4.8-6.7-9.5-10.1-14.3c-2.1-3-4.1-7.8-7.6-8.6
		c-2.7-0.6-6.2,0-8.9,0c-4.6,0-9.2,0-13.8,0c-23.9,0-47.8,0-71.7,0c-8.8,0-17.5,0-26.3,0v73.3h117.8v143.3
		c5.9-9.4,16.6-15.9,27.7-15.9c0.9,0,1.7,0,2.5,0.1c-1.8-4-2.9-8.5-3.1-13.1c-0.8-17.8,15.4-33,32.4-33c16,0,28.3,11.8,31.6,26.8
		c3.2,5.3,5.2,11.4,5.5,17.6c0,0.5,0.1,1,0.1,1.4c0.1,0.5,0.2,0.9,0.2,1.4c0.5,2.6,1.1,5.1,1.8,7.7c1.3,5.4,2.7,10.8,3.6,16.3
		c0.2,1.5,0.4,3,0.5,4.4c1.4,2.7,2.5,5.6,3.2,8.6c0.3,0.1,0.6,0.3,0.9,0.4c0-17.5,0-34.9,0-52.4c0-10.9,0-21.8,0-32.7
		c0-3.5,0.6-7.5-1-10.5C283.5,282.4,281.1,279.3,278.7,276.3z"/>
	<path d="M283.4,394.8c-2,0.6-4.1,1-6.2,1.2c-3.6,1.5-7.4,2.4-11.3,2.5c-2.3,0.7-4.7,1.1-7.1,1.3c-4,0.8-9.6,2-12.2,2.9
		c-3.2,1.3-6.5,1.1-10.1,2.2c-3.2,1.2-6.4,1-9.9,2c-1.6,0.3-3.2,0.6-4.9,0.6c-2.1,0.5-4.5-0.1-6.7-0.1c-4.2,0-7.8,0-11.4-1.5
		c-6.5-1.1-12.2-4.2-16.6-8.6c-3.1-2.4-5.7-5.3-7.9-8.6v80.2h107.4v-74.8C285.6,394.4,284.5,394.6,283.4,394.8z"/>
	<path d="M195.3,141.9c0.7,0.8,1,1.8,1.1,2.8c1.8,0.5,2.8,1.9,3.1,3.5c1.4,0.9,2.5,2.1,3.3,3.6c0.5,0.9,0.9,1.9,1.3,2.9
		c0.4,0.8,0.7,1.6,1.2,2.3c1.4,1.7,3.1,3.3,4.5,5c0.6,0.6,1,1.3,1.3,2.2c0,0.3,0.1,0.6,0.1,0.9c0.2,0.1,0.4,0.3,0.6,0.4
		c0.8,0.6,1.4,1.5,1.9,2.4c0.2,0.4,0.4,0.8,0.6,1.2c0.4,0.4,0.7,0.8,1.1,1.2c0.8,0.8,1.5,1.6,2.1,2.6c0.7,0.9,1.1,2,1.8,2.9
		c0.1,0.1,0.3,0.3,0.4,0.4c1,0.7,1.7,1.7,2,2.8c0.4,0.3,0.8,0.6,1.1,1.1c0.3,0.3,0.5,0.7,0.7,1.1c0.6,1.3,1.3,2.5,2.2,3.6
		c1.6,2,3.4,3.8,5.1,5.8c0.9,1,1.4,2.1,1.4,3.5c0,0.1,0,0.1,0,0.2c0.2,0.1,0.4,0.3,0.5,0.4c0.5,0.5,0.8,1,1.1,1.6
		c1.3,1.4,2.9,2.5,4.2,3.9c1.2,1.4,2,3.1,2.8,4.8c0.8,1.6,1.7,3.1,2.6,4.6c0.3,0.5,0.5,1.1,0.6,1.6c0.7,0.4,1.3,1,1.8,1.7
		c0,0.1,0.1,0.1,0.1,0.2c0.9,1.1,1.9,2.1,2.9,3.1c0.8,0.9,1.5,1.8,2.1,2.8c0.3,0.4,0.5,0.9,0.8,1.3c0.9,1,1.8,1.9,2.6,2.9
		c0.8,1.1,1.2,2.6,1.2,4.1c0.6,0.6,1.1,1.3,1.3,2.3c0.2,0.8,0.9,1.2,1.6,1.9c1,0.9,1.9,1.9,2.7,3.1c1.6,2.3,2.9,4.9,4.5,7.3
		c1.5,2.2,3,4.5,4.8,6.5c2,2.1,4,4.1,5.5,6.6c1.6,2.7,3.1,5.4,4.9,8c1.6,2.2,3.3,4.4,4.8,6.8c0,0.1,0.1,0.1,0.1,0.2
		c0.3,0.3,0.6,0.6,0.9,0.9v-55.6h117.8v-73.3L195.3,141.9L195.3,141.9z"/>
	<path class="st0" d="M215.6,170.3c0.8,0.8,1.5,1.6,2.1,2.6c0.7,0.9,1.1,2,1.8,2.9c0.1,0.1,0.3,0.3,0.4,0.4c1,0.7,1.7,1.7,2,2.8
		c0.4,0.3,0.8,0.6,1.1,1.1c0.3,0.3,0.5,0.7,0.7,1.1c0.6,1.3,1.3,2.5,2.2,3.6c1.5,1.9,3.2,3.6,4.8,5.5L197,141.6h-2.1
		c0.9,0.8,1.4,1.9,1.5,3.1c1.8,0.5,2.8,1.9,3.1,3.5c1.4,0.9,2.5,2.1,3.3,3.6c0.5,0.9,0.9,1.9,1.3,2.9c0.4,0.8,0.7,1.6,1.2,2.3
		c1.4,1.7,3.1,3.3,4.5,5c0.6,0.6,1,1.3,1.3,2.2c0,0.3,0.1,0.6,0.1,0.9c0.2,0.1,0.4,0.3,0.6,0.4c0.8,0.6,1.4,1.5,1.9,2.4
		c0.2,0.4,0.4,0.8,0.6,1.2C214.8,169.5,215.1,169.9,215.6,170.3z"/>
	<path class="st0" d="M232.3,194.2c0.2,0.1,0.4,0.3,0.5,0.4c0.5,0.5,0.8,1,1.1,1.6c0.7,0.8,1.5,1.4,2.3,2.1l-4.4-6.4
		c0.3,0.6,0.4,1.3,0.5,2C232.3,194.1,232.3,194.1,232.3,194.2z"/>
	<path class="st0" d="M244.2,211.2c0.7,0.4,1.3,1,1.8,1.7c0,0.1,0.1,0.1,0.1,0.2c0.4,0.4,0.8,0.9,1.1,1.3l-5.7-8.2
		c0.6,1.1,1.3,2.3,2,3.4C243.9,210.1,244.1,210.6,244.2,211.2z"/>
	<path class="st0" d="M255.7,227.4c0.6,0.6,1.1,1.3,1.3,2.3c0.2,0.8,0.9,1.2,1.6,1.9c1,0.9,1.8,1.9,2.6,2.9l-5.5-8
		C255.7,226.8,255.7,227.1,255.7,227.4z"/>
	<path class="st0" d="M261.4,234.9c1.5,2.2,2.8,4.7,4.3,7c1.5,2.2,3,4.5,4.8,6.5c0.4,0.4,0.8,0.9,1.2,1.3L261.4,234.9z"/>
	<g>
		<g>
			<path class="st0" d="M286.9,379c-0.5-2.2-1.1-4.5-1.6-6.7c-1.5-6.1-2.9-12.2-4.4-18.3c-1.7-7.2-3.5-14.3-5.2-21.5
				c-0.5-2.2-1-4.5-1.7-6.7c-1.4-4.1-3.3-7.9-5.6-11.5c-4.9-7.8-11.2-14.1-19.7-17.7c-9.4-4-18.9-4.1-28.2,0.5
				c-6.9,3.4-11.8,8.8-14.4,16.2c-2.5,6.9-2.2,14-0.2,21c0.6,2.3,1.4,4.5,2.4,6.8c-0.4,0-0.6,0-0.9,0c-5.3,0.2-10.4,1.2-15.2,3.4
				c-5.4,2.4-9.7,5.9-12.9,10.8v33.6c3.6,6.2,9,10.9,16,14.5c5.9,3,12.3,4.4,18.9,4.7c3.2,0.2,6.5,0.3,9.7-0.3
				c8.1-1.6,16.2-3.4,24.2-5c6.1-1.3,12.2-2.6,18.3-3.9c6.9-1.4,13.7-2.9,20.6-4.3V379z M283.7,390c-10,2.1-19.9,4.2-29.9,6.2
				c-10.1,2.1-20.2,4.3-30.3,6.4c-3.1,0.6-6.2,0.5-9.4,0.3c-5.4-0.3-10.6-1.4-15.5-3.7c-9.6-4.4-16.2-11.5-18.6-22.1
				c-1.6-7.2-0.4-14,4-20.1c3.3-4.5,7.8-7.4,13-9.1c4.8-1.6,9.8-2.1,14.8-1.9c1.1,0,2-0.2,2.6-1.2c0.6-0.9,0.4-1.9-0.1-2.8
				c-2.6-5.1-4.5-10.5-4.9-16.3c-0.4-6.2,0.9-11.9,4.5-16.9c2.6-3.6,6-6.2,10-7.9c8-3.3,15.9-2.9,23.7,0.7c1.4,0.6,2.8,1.4,4.1,2.2
				c6.5,4.2,11.1,10.1,14.8,17c2.2,4.2,3.5,8.8,4.6,13.4c1.8,7.6,3.6,15.2,5.5,22.8c1.7,7.2,3.4,14.3,5.2,21.5
				c0.9,3.5,1.7,7.1,2.6,10.6C284.4,389.8,284.2,389.9,283.7,390z"/>
		</g>
	</g>
</g>
<polygon class="st0" points="197.1,142.3 184.4,142.3 286.1,286.8 286.1,268.7 "/>
<g>
	<path d="M377.6,467.4c-27.8,0-40.1-27.5-34.5-61c6.3-33.5,33.5-60.6,61.3-60.6c9,0,14.2,1.7,21.5,5.6h18.2l-15.6,89.2
		c-1.3,7.6-1,13.6,3.6,13.6c3.6,0,10.6-5,13.3-7.3v7.6c-6.6,6.6-15.9,11.6-21.9,11.6c-9.3,0-13.9-6-14.6-15.2
		C400.8,460.5,387.9,467.4,377.6,467.4z M423.3,364.7c-3.6-3.6-9.9-8.3-20.5-8.3c-19.6,0-33.5,23.5-38.1,50
		c-5,26.5,0,47.7,18.9,47.7c12.6,0,26.2-12.9,29.5-30.8L423.3,364.7z"/>
	<path d="M535.4,394.5c6.6-36.1-11.9-36.5-10.3-44.7c0.3-4,4.6-6.3,8.3-6.3c8.6,0,20.2,12.6,13.9,45.7
		c-13.9,80.5-99.1,160.8-153.1,160.8c-19.6,0-26.5-9.3-25.2-17.6c0.7-4.3,6-10.9,10.3-10.9c6.6,0,4.6,14.2,23.9,14.2
		c24.2,0,56.3-21.5,82.5-51c13.3-89.2-0.3-126.3-14.9-126.3c-4.6,0-12.9,5.3-15.2,8v-8c6.3-6.6,15.2-11.3,24.2-11.3
		c25.2,0,35.8,44.4,26.9,111.7C520.8,437.6,532.1,415,535.4,394.5z"/>
	<path d="M601.3,454.1c4,0,10.9-5,13.3-7.3v7.6c-6.6,6.6-15.6,11.6-21.5,11.6c-11.6,0-16.6-9.9-14.2-23.2l12.6-70.3
		c1.3-8,0.7-13.9-3.6-13.9c-4,0-10.9,5-13.3,7.6v-8c6.3-6.6,15.2-11.3,21.5-11.3c11.6,0,16.6,9.6,14.2,22.9L598,440.5
		C596.4,448.2,597,454.1,601.3,454.1z M611.3,310c-6.3,0-10.6-5-9.6-11.6c1.3-6.3,7.6-11.6,13.9-11.6s10.6,5.3,9.6,11.6
		C624.2,305,617.9,310,611.3,310z"/>
	<path d="M704.4,258.6l-49,19.5l-1-2.3l35.8-28.8c6.3-5,10.6-7.9,15.9-7.9c6.6,0,8.6,5.6,8,9.6C713,253.6,707.4,257.3,704.4,258.6z"
		/>
	<path d="M732.3,467.4c-20.5,0-30.2-13.6-28.5-22.5c1-5,4.6-7.6,9.3-7.6c12.3,0,0.7,19.6,23.2,19.6c9.6,0,16.9-8.6,17.9-15.9
		c1.7-9-5-18.9-9.6-23.2l-11.9-11.6c-7.6-7.3-12.9-19.5-10.9-30.2c2.3-14.9,14.2-30.2,36.1-30.2c17.9,0,23.5,11.9,22.5,19.6
		c-0.7,4-3.7,6.6-7.3,6.6c-11.6,0-1.7-17.2-18.9-17.2c-7.3,0-14.9,5.6-16.6,14.6c-1.7,8.6,2,13.9,9.9,21.9l11.9,11.3
		c8.6,8.3,12.9,20.5,10.9,30.8C766.4,455.8,748.2,467.4,732.3,467.4z"/>
</g>
</svg>
